<svg class="bob" font-family="arial" font-size="14" height="160" width="720" xmlns="http://www.w3.org/2000/svg">
<defs>
<marker id="triangle" markerHeight="8" markerWidth="8" orient="auto" refX="4" refY="2" viewBox="0 0 8 4">
<polygon fill="black" points="0,0 0,4 8,2 0,0"/>
</marker>
<marker id="clear_triangle" markerHeight="10" markerWidth="10" orient="auto" refX="1" refY="7" viewBox="0 0 20 14">
<polygon fill="none" points="2,2 2,12 18,7 2,2" stroke="black" stroke-width="2"/>
</marker>
<marker id="circle" markerHeight="5" markerWidth="5" orient="auto" refX="10" refY="10" viewBox="0 0 20 20">
<circle cx="10" cy="10" fill="black" r="8"/>
</marker>
<marker id="square" markerHeight="5" markerWidth="5" orient="auto" refX="10" refY="10" viewBox="0 0 20 20">
<rect fill="black" height="20" width="20" x="0" y="0"/>
</marker>
<marker id="open_circle" markerHeight="10" markerWidth="10" orient="auto" refX="10" refY="10" viewBox="0 0 20 20">
<circle cx="10" cy="10" fill="white" r="4" stroke="black" stroke-width="2"/>
</marker>
<marker id="big_open_circle" markerHeight="20" markerWidth="20" orient="auto" refX="20" refY="20" viewBox="0 0 40 40">
<circle cx="20" cy="20" fill="white" r="6" stroke="black" stroke-width="2"/>
</marker>
</defs>
<style type="text/css">

    line,path {
      stroke: black;
      stroke-width: 2;
      stroke-opacity: 1;
      fill-opacity: 1;
      stroke-linecap: round;
      stroke-linejoin: miter;
    }
    line.dashed {
        stroke-dasharray: 5;
    }
    circle.solid {
      fill:black;
      stroke: black;
      stroke-width: 2;
      stroke-opacity: 1;
      fill-opacity: 1;
      stroke-linecap: round;
      stroke-linejoin: miter;
    }
    circle.open {
      fill:none;
      stroke: black;
      stroke-width: 2;
      stroke-opacity: 1;
      fill-opacity: 1;
      stroke-linecap: round;
      stroke-linejoin: miter;
    }
    tspan.head{
        fill: none;
        stroke: none;
    }
    
</style>
<rect fill="white" height="160" width="720" x="0" y="0"/>
<g>
<line x1="4" x2="4" y1="12" y2="16"/>
<line class="dashed" fill="none" x1="4" x2="4" y1="16" y2="144"/>
<path d="M 8 8 A 4 4 0 0 0 4 12" fill="none"/>
</g>
<g>
<line x1="4" x2="4" y1="148" y2="144"/>
<path d="M 4 148 A 4 4 0 0 0 8 152" fill="none"/>
</g>
<g>
<line x1="36" x2="36" y1="40" y2="72"/>
<line x1="36" x2="92" y1="40" y2="40"/>
<line x1="36" x2="92" y1="72" y2="72"/>
<line x1="92" x2="92" y1="40" y2="72"/>
</g>
<g>
<line x1="36" x2="36" y1="104" y2="136"/>
<line x1="36" x2="92" y1="104" y2="104"/>
<line x1="36" x2="92" y1="136" y2="136"/>
<line x1="92" x2="92" y1="104" y2="136"/>
</g>
<g>
<line x1="532" x2="532" y1="12" y2="16"/>
<line class="dashed" fill="none" x1="532" x2="532" y1="16" y2="144"/>
<path d="M 532 12 A 4 4 0 0 0 528 8" fill="none"/>
</g>
<g>
<line x1="532" x2="532" y1="148" y2="144"/>
<path d="M 528 152 A 4 4 0 0 0 532 148" fill="none"/>
</g>
<g>
<line class="dashed" fill="none" x1="8" x2="528" y1="8" y2="8"/>
</g>
<g>
<line class="dashed" fill="none" x1="8" x2="528" y1="152" y2="152"/>
</g>
<g>
<text x="57" y="60">
A
</text>
</g>
<g>
<text x="57" y="124">
B
</text>
</g>
</svg>